<svg xmlns="http://www.w3.org/2000/svg" width="20.877" height="17.299" viewBox="0 0 20.877 17.299">
  <g id="Group_5373" data-name="Group 5373" transform="translate(-7.444 -5.342)">
    <path id="Path_42" data-name="Path 42" d="M235.734,87.878H217.845a1.5,1.5,0,0,1-1.485-1.5h0a1.485,1.485,0,0,1,1.485-1.485h17.889a1.5,1.5,0,0,1,1.5,1.485h0A1.521,1.521,0,0,1,235.734,87.878Z" transform="translate(-208.917 -79.548)" fill="#FFFFFF"/>
    <path id="Path_43" data-name="Path 43" d="M235.734,91.878H217.845a1.5,1.5,0,0,1-1.485-1.5h0a1.485,1.485,0,0,1,1.485-1.485h17.889a1.5,1.5,0,0,1,1.5,1.485h0A1.521,1.521,0,0,1,235.734,91.878Z" transform="translate(-208.917 -76.392)" fill="#FFFFFF"/>
    <path id="Path_44" data-name="Path 44" d="M235.734,95.878H217.845a1.5,1.5,0,0,1-1.485-1.5h0a1.485,1.485,0,0,1,1.485-1.485h17.889a1.5,1.5,0,0,1,1.5,1.485h0a1.521,1.521,0,0,1-1.5,1.5Z" transform="translate(-208.917 -73.237)" fill="#FFFFFF"/>
  </g>
</svg>
