<svg xmlns="http://www.w3.org/2000/svg" width="80" height="80" viewBox="0 0 80 80">
  <g id="Group_5373" data-name="Group 5373" transform="translate(-5366 -3278)">
    <g id="_6538-8" data-name="6538-8" transform="translate(5366 3278)" fill="#fff">
      <path d="M 40 78 C 34.8691520690918 78 29.89284706115723 76.99556732177734 25.20929336547852 75.01458740234375 C 20.68453025817871 73.10077667236328 16.62044715881348 70.36054992675781 13.1299409866333 66.87005615234375 C 9.639447212219238 63.37955474853516 6.899223327636719 59.31547164916992 4.985411643981934 54.79070663452148 C 3.004435300827026 50.10715484619141 2 45.1308479309082 2 40 C 2 34.8691520690918 3.004435300827026 29.89284706115723 4.985411643981934 25.20929336547852 C 6.899223327636719 20.68453025817871 9.639447212219238 16.62044715881348 13.1299409866333 13.1299409866333 C 16.62044715881348 9.639447212219238 20.68453025817871 6.899223327636719 25.20929336547852 4.985411643981934 C 29.89284706115723 3.004435300827026 34.8691520690918 2 40 2 C 44.80975341796875 2 49.38562393188477 2.869153022766113 53.98909378051758 4.657105922698975 C 57.4438362121582 5.998023509979248 60.68430709838867 7.859647274017334 63.62091827392578 10.1904354095459 C 66.53662109375 12.50463485717773 69.09480285644531 15.234694480896 71.22438812255859 18.30478858947754 C 75.65703582763672 24.69504737854004 78 32.19712829589844 78 40 C 78 45.1308479309082 76.99556732177734 50.10715484619141 75.01458740234375 54.79070663452148 C 73.10077667236328 59.31547164916992 70.36054992675781 63.37955474853516 66.87005615234375 66.87005615234375 C 63.37955474853516 70.36054992675781 59.31547164916992 73.10077667236328 54.79070663452148 75.01458740234375 C 50.10715484619141 76.99556732177734 45.1308479309082 78 40 78 Z" stroke="none"/>
      <path d="M 40 4 C 35.13827133178711 4 30.42408752441406 4.951286315917969 25.98839950561523 6.827415466308594 C 21.7020149230957 8.640403747558594 17.85161590576172 11.23668670654297 14.54415893554688 14.54415893554688 C 11.23668670654297 17.85161590576172 8.640403747558594 21.7020149230957 6.827415466308594 25.98839950561523 C 4.951286315917969 30.42408752441406 4 35.13827133178711 4 40 C 4 44.86172866821289 4.951286315917969 49.57591247558594 6.827415466308594 54.01160049438477 C 8.640403747558594 58.2979736328125 11.23668670654297 62.14836883544922 14.54415893554688 65.45584106445313 C 17.85161590576172 68.76331329345703 21.7020149230957 71.35960388183594 25.98839950561523 73.17258453369141 C 30.42408752441406 75.04871368408203 35.13827133178711 76 40 76 C 44.86172866821289 76 49.57591247558594 75.04871368408203 54.01160049438477 73.17258453369141 C 58.2979736328125 71.35960388183594 62.14836883544922 68.76331329345703 65.45584106445313 65.45584106445313 C 68.76331329345703 62.14836883544922 71.35960388183594 58.2979736328125 73.17258453369141 54.01160049438477 C 75.04871368408203 49.57591247558594 76 44.86172866821289 76 40 C 76 32.60649871826172 73.78035736083984 25.49860000610352 69.58103942871094 19.44469833374023 C 67.56324005126953 16.53577041625977 65.13964080810547 13.94924163818359 62.37755584716797 11.75697326660156 C 59.59838485717773 9.551139831542969 56.53275680541992 7.789756774902344 53.26499938964844 6.521430969238281 C 48.89659881591797 4.82476806640625 44.55757141113281 4 40 4 M 40 0 C 45.10311508178711 0 49.9830436706543 0.95562744140625 54.71318817138672 2.79278564453125 C 69.40956115722656 8.496986389160156 80 23.0117301940918 80 40 C 80 62.09138488769531 62.09138488769531 80 40 80 C 17.90859985351563 80 0 62.09138488769531 0 40 C 0 17.90859985351563 17.90859985351563 0 40 0 Z" stroke="none" fill="#e1e1e1"/>
    </g>
    <g id="single-01" transform="translate(5384.962 3293)">
      <path id="Path_11664" data-name="Path 11664" d="M37.539,22.581A47.233,47.233,0,0,0,21.519,20,47.233,47.233,0,0,0,5.5,22.581,6.848,6.848,0,0,0,1,29.01v6.037a1.368,1.368,0,0,0,1.368,1.368h38.3a1.368,1.368,0,0,0,1.368-1.368V29.01A6.848,6.848,0,0,0,37.539,22.581Z" transform="translate(0 7.358)" fill="#7b7b7b"/>
      <path id="Path_11665" data-name="Path 11665" d="M18.943,24.623A10.956,10.956,0,0,0,29.887,13.679V10.943A10.943,10.943,0,0,0,8,10.943v2.736A10.956,10.956,0,0,0,18.943,24.623Z" transform="translate(2.575)" fill="#7b7b7b"/>
    </g>
  </g>
</svg>
