<svg id="edit" xmlns="http://www.w3.org/2000/svg" width="25" height="25" viewBox="0 0 25 25">
  <circle id="Ellipse_31" data-name="Ellipse 31" cx="12.5" cy="12.5" r="12.5" fill="#ffab94"/>
  <path id="edit-2" data-name="edit" d="M169.976,92.622,163.9,85.416a1.1,1.1,0,0,1,.132-1.547l2.238-1.89a1.1,1.1,0,0,1,1.547.132l6.078,7.206.352,3.842a.434.434,0,0,1-.544.46l-3.726-1Zm-1.719-8.628-2.576,2.172,4.4,5.219,2.576-2.174-4.4-5.217Zm-1.419-1.342-2.24,1.888a.222.222,0,0,0-.026.309l.546.648,2.575-2.172-.546-.648a.222.222,0,0,0-.309-.026Zm6.486,9.963L173.083,90l-2.3,1.936,2.536.678Z" transform="translate(-156.248 -74.722)" fill="#fff"/>
</svg>
