<svg xmlns="http://www.w3.org/2000/svg" width="20.596" height="15.447" viewBox="0 0 20.596 15.447">
  <g id="email-84" transform="translate(0 -4)">
    <path id="Path_11663" data-name="Path 11663" d="M19.952,4H.644A.608.608,0,0,0,0,4.644V18.8a.608.608,0,0,0,.644.644H19.952A.608.608,0,0,0,20.6,18.8V4.644A.608.608,0,0,0,19.952,4ZM18.408,7.089l-7.723,5.149a.915.915,0,0,1-.386.129.915.915,0,0,1-.386-.129L2.188,7.089a.681.681,0,0,1-.129-.9.681.681,0,0,1,.9-.129L10.3,10.951,17.635,6.06a.633.633,0,0,1,.9.193A.61.61,0,0,1,18.408,7.089Z" fill="#cacaca"/>
  </g>
</svg>
