<svg xmlns="http://www.w3.org/2000/svg" width="27" height="27" viewBox="0 0 26.898 26.898">
  <path id="Path_310" data-name="Path 310" d="M15.449,2A13.449,13.449,0,1,0,28.9,15.449,13.454,13.454,0,0,0,15.449,2ZM8.819,23.9c.578-1.21,4.1-2.394,6.63-2.394s6.066,1.184,6.63,2.394a10.659,10.659,0,0,1-13.261,0ZM24,21.945c-1.923-2.34-6.59-3.134-8.554-3.134S8.819,19.6,6.9,21.945a10.759,10.759,0,1,1,17.107,0ZM15.449,7.38a4.707,4.707,0,1,0,4.707,4.707A4.7,4.7,0,0,0,15.449,7.38Zm0,6.725a2.017,2.017,0,1,1,2.017-2.017A2.015,2.015,0,0,1,15.449,14.1Z" transform="translate(-2 -2)" fill="#646464"/>
</svg>
