<svg id="Component_3_1" data-name="Component 3 – 1" xmlns="http://www.w3.org/2000/svg" xmlns:xlink="http://www.w3.org/1999/xlink" width="429.516" height="483.636" viewBox="0 0 429.516 483.636">
  <defs>
    <linearGradient id="linear-gradient" x1="0.04" y1="-0.492" x2="1.101" y2="1.555" gradientUnits="objectBoundingBox">
      <stop offset="0" stop-color="#ff7d49"/>
      <stop offset="0.2" stop-color="#fb7747"/>
      <stop offset="0.47" stop-color="#f26541"/>
      <stop offset="0.78" stop-color="#e14837"/>
      <stop offset="1" stop-color="#d32f2f"/>
    </linearGradient>
    <clipPath id="clip-path">
      <path id="Path_30" data-name="Path 30" d="M149.757,328.263v-4.328l2.311-2.626c0-10.022,2.941-15.9,5-18.8.63-.777,1.282-1.534,1.954-2.248,10.862-11.492,26.83-12.144,35.717-24.918s18.531-35.129,40.255-35.129H177.238c-21.724,0-31.3,22.355-40.255,35.129s-24.9,13.425-35.717,24.918a28.226,28.226,0,0,0-1.954,2.248c-2.1,2.9-5,8.782-5,18.8L92,323.935v4.328a2.1,2.1,0,0,0,2.1,2.1h57.82a2.1,2.1,0,0,1-2.164-2.1Z" transform="translate(-92 -240.21)" fill="none"/>
    </clipPath>
  </defs>
  <path id="Path_2" data-name="Path 2" d="M486.966,100.876c0-20.007-17.094-36.226-38.181-36.226H95.631c-21.087,0-38.181,16.219-38.181,36.226V505.783a163.662,163.662,0,0,0,58.885,12.571c83.59,3.234,268.291-127.221,370.631-196.955Z" transform="translate(-57.45 -64.65)" fill="#21aba5"/>
  <path id="Path_3" data-name="Path 3" d="M259.134,238.237a43.777,43.777,0,1,0-87.554,0s-5.909,44.45,40.735,80.928a5.018,5.018,0,0,0,6.083,0C265.044,282.687,259.134,238.237,259.134,238.237Z" transform="translate(101.809 91.466)" fill="url(#linear-gradient)"/>
  <ellipse id="Ellipse_1" data-name="Ellipse 1" cx="22.616" cy="22.681" rx="22.616" ry="22.681" transform="translate(284.701 329.734) rotate(-45)" fill="#fff"/>
  <path id="Path_4" data-name="Path 4" d="M136.036,244.672H84.72s3.237-9.3,12.536-10.863,8.886,5.649,16.968,6.061,10.515-4.454,16.577-1.629S136.036,244.672,136.036,244.672Z" transform="translate(-13.193 137.345)" fill="#f1f2f2"/>
  <path id="Path_5" data-name="Path 5" d="M190.536,229.172H139.22s3.237-9.3,12.536-10.863,8.886,5.649,16.968,6.061,10.515-4.454,16.577-1.629S190.536,229.172,190.536,229.172Z" transform="translate(58.025 119.171)" fill="#f1f2f2"/>
  <ellipse id="Ellipse_12" data-name="Ellipse 12" cx="29.699" cy="29.699" rx="29.699" ry="29.699" transform="translate(76.047 343.967) rotate(-77)" fill="#f4ab3e"/>
  <g id="Group_11" data-name="Group 11" transform="translate(103.922 370.1)">
    <path id="Path_6" data-name="Path 6" d="M285.418,318.474a9.665,9.665,0,0,0-9.581-8.4c-9.118,0-6.3,6.3-16.115,2.1s-5.61-32.923-22.418-37.818-15.4,23.8-23.111,28.006-11.2-11.913-21.7-7c-8.4,3.929-9.644,17.8-9.791,23.111Z" transform="translate(14.449 -211.234)" fill="#63c856"/>
    <rect id="Rectangle_8" data-name="Rectangle 8" width="138.897" height="30.444" transform="translate(84.965 57.084)" fill="#212826"/>
    <rect id="Rectangle_9" data-name="Rectangle 9" width="226.425" height="10.694" rx="2.04" transform="translate(6.723 84.187)" fill="#212826"/>
    <ellipse id="Ellipse_2" data-name="Ellipse 2" cx="19.917" cy="19.917" rx="19.917" ry="19.917" transform="translate(30.17 65.824)" fill="#17242b"/>
    <ellipse id="Ellipse_3" data-name="Ellipse 3" cx="19.917" cy="19.917" rx="19.917" ry="19.917" transform="translate(130.052 65.824)" fill="#17242b"/>
    <ellipse id="Ellipse_4" data-name="Ellipse 4" cx="23.657" cy="21.535" rx="23.657" ry="21.535" transform="translate(72.716 62.484)" fill="#17242b"/>
    <ellipse id="Ellipse_6" data-name="Ellipse 6" cx="21.535" cy="21.535" rx="21.535" ry="21.535" transform="translate(77.527 62.484)" fill="#212826"/>
    <ellipse id="Ellipse_7" data-name="Ellipse 7" cx="16.85" cy="16.85" rx="16.85" ry="16.85" transform="translate(82.885 67.169)" fill="#48606c"/>
    <path id="Path_9" data-name="Path 9" d="M169.246,280.75a2.1,2.1,0,0,0-1.975,1.723,16.808,16.808,0,0,1-33.217,0,2.1,2.1,0,0,0-2-1.723h-1.366a2.1,2.1,0,0,0-1.975,2.353,21.535,21.535,0,0,0,42.524,0,2.1,2.1,0,0,0-2.1-2.353Z" transform="translate(-51.002 -195.575)" fill="#374148"/>
    <path id="Path_10" data-name="Path 10" d="M155.29,285.76a10.505,10.505,0,1,1-3.039-7.5,10.5,10.5,0,0,1,3.039,7.5Z" transform="translate(-44.861 -201.741)" fill="#c4cad1"/>
    <path id="Path_11" data-name="Path 11" d="M132.367,288.36a.988.988,0,0,0,.987-.861,14.707,14.707,0,1,1,29.414,0,.966.966,0,0,0,.987.861h0a1.029,1.029,0,0,0,.987-1.135,16.808,16.808,0,0,0-33.469,0,1.009,1.009,0,0,0,.988,1.135Z" transform="translate(-48.18 -205.223)" fill="#524f5e"/>
    <ellipse id="Ellipse_10" data-name="Ellipse 10" cx="21.535" cy="21.535" rx="21.535" ry="21.535" transform="translate(173.606 62.484)" fill="#212826"/>
    <ellipse id="Ellipse_11" data-name="Ellipse 11" cx="16.85" cy="16.85" rx="16.85" ry="16.85" transform="translate(178.985 67.169)" fill="#48606c"/>
    <path id="Path_12" data-name="Path 12" d="M215.092,280.75a2.1,2.1,0,0,0-2,1.723,16.808,16.808,0,0,1-33.217,0,2.1,2.1,0,0,0-1.975-1.723h-1.366a2.1,2.1,0,0,0-2.1,2.353,21.535,21.535,0,0,0,42.545,0,2.1,2.1,0,0,0-2-2.353Z" transform="translate(-0.664 -195.575)" fill="#374148"/>
    <path id="Path_14" data-name="Path 14" d="M178.16,288.36a.987.987,0,0,0,.987-.861,14.707,14.707,0,0,1,29.309,0,.987.987,0,0,0,.987.861h0a1.008,1.008,0,0,0,.988-1.135,16.808,16.808,0,0,0-33.469,0,1.029,1.029,0,0,0,.987,1.135Z" transform="translate(2.127 -205.223)" fill="#524f5e"/>
    <path id="Path_15" data-name="Path 15" d="M149.757,328.263v-4.328l2.311-2.626c0-10.022,2.941-15.9,5-18.8.63-.777,1.282-1.534,1.954-2.248,10.862-11.492,26.83-12.144,35.717-24.918s18.531-35.129,40.255-35.129H177.238c-21.724,0-31.3,22.355-40.255,35.129s-24.9,13.425-35.717,24.918a28.226,28.226,0,0,0-1.954,2.248c-2.1,2.9-5,8.782-5,18.8L92,323.935v4.328a2.1,2.1,0,0,0,2.1,2.1h57.82a2.1,2.1,0,0,1-2.164-2.1Z" transform="translate(-91.412 -240.21)" fill="#feda4e"/>
    <path id="Path_16" data-name="Path 16" d="M298.937,298.2l-4.076-5.61c-4.37-29.267-15.9-42.986-22.754-48.764a15.61,15.61,0,0,0-10.022-3.614H203.258c-21.724,0-31.3,22.355-40.255,35.129s-24.918,13.425-35.717,24.918c-.672.714-1.324,1.471-1.954,2.248-2.1,2.9-5,8.782-5,18.8l-2.311,2.626v4.328a2.1,2.1,0,0,0,2.1,2.1H139.03a2.794,2.794,0,0,0,2.752-3.278,23.11,23.11,0,0,1-.168-6.156,22.649,22.649,0,0,1,45.171,2.416,23.53,23.53,0,0,1-.189,3,3.572,3.572,0,0,0,3.572,4.013H233.2a4.706,4.706,0,0,0,4.685-5.126,22.649,22.649,0,1,1,45.235-1.891,21.382,21.382,0,0,1-.273,3.509,3.046,3.046,0,0,0,3,3.509h8.614a5.442,5.442,0,0,0,5.421-5.421V301.391a5.421,5.421,0,0,0-.945-3.194Z" transform="translate(-62.764 -240.21)" fill="#feda4e"/>
    <path id="Path_17" data-name="Path 17" d="M144.985,271.89h84.4a1.828,1.828,0,0,0,.861-.231l19.876-11.219a1.366,1.366,0,0,0,.735-1.3c-.273-2.29-1.975-8.8-12.375-15.547a4.055,4.055,0,0,0-2.1-.609H169.461a4.2,4.2,0,0,0-2.206.609,65.488,65.488,0,0,0-23.741,26.347,1.429,1.429,0,0,0,1.471,1.954Z" transform="translate(-34.808 -237.16)" fill="#fff"/>
    <path id="Path_19" data-name="Path 19" d="M231.8,245.5a4.328,4.328,0,0,0-2.353-.672H161.331a65.132,65.132,0,0,0-17.817,22.187,1.408,1.408,0,0,0,1.45,1.933h84.166a1.912,1.912,0,0,0,.84-.21l14.707-8.4C243.775,257.1,240.833,251.49,231.8,245.5Z" transform="translate(-34.809 -235.123)" fill="#47bbe4"/>
    <path id="Path_20" data-name="Path 20" d="M230.123,251.952a4.391,4.391,0,0,0-2.353-.672H159.655a67.233,67.233,0,0,0-10.505,10.505h73.661a1.912,1.912,0,0,0,.84-.21l11.093-6.3A50.926,50.926,0,0,0,230.123,251.952Z" transform="translate(-28.489 -228.022)" fill="#2c8ca5"/>
    <path id="Path_22" data-name="Path 22" d="M141.542,244.221a6.3,6.3,0,0,0-4.517,1.765,119.446,119.446,0,0,0-17.375,22.859l33.406.609a5.757,5.757,0,0,0,5.021-2.752,133.434,133.434,0,0,1,16.115-21.892Z" transform="translate(-60.969 -235.796)" fill="#47bbe4"/>
    <path id="Path_23" data-name="Path 23" d="M127.225,273.337c-.672.714-1.324,1.471-1.954,2.248-2.1,2.9-5,8.782-5,18.8l-2.311,2.626v4.328a2.1,2.1,0,0,0,2.1,2.1H138.97a2.794,2.794,0,0,0,2.752-3.277,23.111,23.111,0,0,1-.168-6.156,22.649,22.649,0,0,1,45.171,2.416,23.524,23.524,0,0,1-.189,3,3.572,3.572,0,0,0,3.572,4.013h43.028a4.706,4.706,0,0,0,4.685-5.126,22.649,22.649,0,1,1,45.235-1.891,21.384,21.384,0,0,1-.273,3.509,3.046,3.046,0,0,0,3,3.509h8.74a5.442,5.442,0,0,0,5.421-5.421V274.472a5.421,5.421,0,0,0-1.029-3.193l-4.076-5.61a5.614,5.614,0,0,0-.168-1.008H139.2A45.025,45.025,0,0,0,127.225,273.337Z" transform="translate(-62.83 -213.29)" fill="#febc2f"/>
    <rect id="Rectangle_10" data-name="Rectangle 10" width="12.375" height="5.694" rx="0.65" transform="translate(44.499 63.282)" fill="#fee8a9"/>
    <path id="Path_24" data-name="Path 24" d="M93.91,275.918H102.8a1.366,1.366,0,0,0,1.366-1.366v-2.836a1.366,1.366,0,0,0-1.366-1.366h-6.3a25.213,25.213,0,0,0-2.584,5.568Z" transform="translate(-89.309 -207.026)" fill="#fee8a9"/>
    <path id="Path_25" data-name="Path 25" d="M204.173,273.72h4.2a2.1,2.1,0,0,1,2.1,2.1v12.606a2.1,2.1,0,0,1-2.1,2.1h-4.2a2.563,2.563,0,0,1-2.563-2.563V276.3a2.563,2.563,0,0,1,2.563-2.584Z" transform="translate(29.269 -203.315)" fill="#212826"/>
    <path id="Path_26" data-name="Path 26" d="M100.637,274.91h25.338a2.857,2.857,0,0,1,2.857,2.857v7.143H97.78v-7.143a2.857,2.857,0,0,1,2.857-2.857Z" transform="translate(-85.048 -202.005)" fill="#fea100"/>
    <g id="Group_10" data-name="Group 10" transform="translate(0 81.246)">
      <path id="Path_27" data-name="Path 27" d="M95.323,278.964h56.853a2.962,2.962,0,0,1,2.962,2.962v3.509a2.962,2.962,0,0,1-2.962,2.962H95.323a2.983,2.983,0,0,1-2.983-2.962v-3.572a2.983,2.983,0,0,1,2.983-2.984Z" transform="translate(-91.037 -278.88)" fill="#212826"/>
      <g id="Group_9" data-name="Group 9" transform="translate(0 0.084)">
        <rect id="Rectangle_11" data-name="Rectangle 11" width="54.584" height="9.518" rx="1.43" fill="#374148"/>
        <path id="Path_28" data-name="Path 28" d="M120.818,283.872H111.2a1.786,1.786,0,0,1-1.786-1.786h0A1.786,1.786,0,0,1,111.2,280.3h9.623a1.786,1.786,0,0,1,1.786,1.786h0a1.786,1.786,0,0,1-1.786,1.786Z" transform="translate(-72.243 -277.401)" fill="#212826"/>
        <path id="Path_29" data-name="Path 29" d="M104.474,283.872H94.936a1.786,1.786,0,0,1-1.786-1.786h0a1.786,1.786,0,0,1,1.786-1.786h9.623a1.786,1.786,0,0,1,1.786,1.786h0a1.786,1.786,0,0,1-1.87,1.786Z" transform="translate(-90.146 -277.401)" fill="#212826"/>
      </g>
    </g>
    <g id="Group_3" data-name="Group 3" transform="translate(0.588)" clip-path="url(#clip-path)">
      <rect id="Rectangle_12" data-name="Rectangle 12" width="8.089" height="4.034" rx="0.42" transform="translate(1.492 75.51)" fill="#fea100"/>
    </g>
    <rect id="Rectangle_13" data-name="Rectangle 13" width="23.069" height="5.105" rx="0.62" transform="translate(17.901 63.492)" fill="#374148"/>
    <rect id="Rectangle_14" data-name="Rectangle 14" width="8.089" height="4.034" rx="0.42" transform="translate(46.201 75.51)" fill="#fea100"/>
    <path id="Path_32" data-name="Path 32" d="M169.655,264.482h-9.034a2.1,2.1,0,0,1-2.1-2.1h0a2.1,2.1,0,0,1,2.1-2.1h9.034a2.1,2.1,0,0,1,2.1,2.1h0A2.1,2.1,0,0,1,169.655,264.482Z" transform="translate(-18.173 -218.113)" fill="#374148"/>
    <path id="Path_33" data-name="Path 33" d="M199.225,264.482h-9.034a2.1,2.1,0,0,1-2.1-2.1h0a2.1,2.1,0,0,1,2.1-2.1h9.034a2.1,2.1,0,0,1,2.1,2.1h0A2.1,2.1,0,0,1,199.225,264.482Z" transform="translate(14.384 -218.113)" fill="#374148"/>
    <path id="Path_34" data-name="Path 34" d="M170.073,269.863H175.6L170.389,244H165.01Z" transform="translate(-11.028 -236.037)" fill="#2c8ca5"/>
    <path id="Path_35" data-name="Path 35" d="M156.488,267.005H136.507a2.815,2.815,0,0,0-1.366.357l-5.862,3.3a2.1,2.1,0,0,1-.987.273H103.4a2.1,2.1,0,0,1-1.786-1.051l-.882-1.6a2.857,2.857,0,0,0-.651-.777l-.966-.819-.609.441,1.114.924a1.869,1.869,0,0,1,.483.588l.882,1.576a2.752,2.752,0,0,0,2.416,1.429h24.9a2.8,2.8,0,0,0,1.345-.357l5.862-3.32a2.1,2.1,0,0,1,1.008-.252h19.056Z" transform="translate(-84.255 -211.055)" fill="#febc2f"/>
    <path id="Path_36" data-name="Path 36" d="M206.828,275.189h-3.046a.819.819,0,0,1-.8-.672l-.378-2.1a.819.819,0,0,1,.8-.945h3.425Z" transform="translate(30.354 -205.793)" fill="#e33c2e"/>
    <path id="Path_37" data-name="Path 37" d="M132.088,271.245l8.341.147-1.618-28.8-8.341-.147Z" transform="translate(-49.056 -237.755)" fill="#fbf9fa" opacity="0.28"/>
    <path id="Path_38" data-name="Path 38" d="M163.27,242.05l5.883,30.507H174.7l-6.072-30.507Z" transform="translate(-12.943 -238.184)" fill="#dfe5f5"/>
    <path id="Path_142" data-name="Path 142" d="M155.29,285.76a10.505,10.505,0,1,1-3.039-7.5,10.5,10.5,0,0,1,3.039,7.5Z" transform="translate(51.139 -201.741)" fill="#c4cad1"/>
  </g>
  <path id="Path_41" data-name="Path 41" d="M302.893,298.286H99.755a4.155,4.155,0,0,1-4.395-3.863h0a4.155,4.155,0,0,1,4.395-3.863H302.893a4.155,4.155,0,0,1,4.395,3.863h0A4.155,4.155,0,0,1,302.893,298.286Z" transform="translate(-4.403 185.35)" fill="#f1f2f2"/>
  <path id="Path_39" data-name="Path 39" d="M134.19,280.318a10.458,10.458,0,0,0,20.917,0,.85.85,0,0,0,0-.228h-20.9A2.162,2.162,0,0,0,134.19,280.318Z" transform="translate(46.87 173.812)" fill="#aeb0b6"/>
  <path id="Path_143" data-name="Path 143" d="M134.19,280.318a10.458,10.458,0,0,0,20.917,0,.85.85,0,0,0,0-.228h-20.9A2.162,2.162,0,0,0,134.19,280.318Z" transform="translate(148.333 173.812)" fill="#aeb0b6"/>
  <text id="مستأجر_ومزود" data-name="مستأجر ومزود" transform="translate(254.586 187.212)" fill="#374148" font-size="20" font-family="Tajawal-Bold, Tajawal" font-weight="700"><tspan x="0" y="0">مستأجر ومزود</tspan></text>
  <text id="صيانة_أساس" data-name="صيانة أساس" transform="translate(250.586 158.99)" fill="#fff" font-size="22" font-family="Tajawal-Bold, Tajawal" font-weight="700" letter-spacing="-0.01em"><tspan x="0" y="0">صيانة أساس</tspan></text>
</svg>
