<svg xmlns="http://www.w3.org/2000/svg" xmlns:xlink="http://www.w3.org/1999/xlink" width="29" height="29" viewBox="0 0 32.154 32.861">
  <defs>
    <filter id="Path_3833" x="0" y="2.123" width="32.154" height="30.738" filterUnits="userSpaceOnUse">
      <feOffset dy="3" input="SourceAlpha"/>
      <feGaussianBlur stdDeviation="3" result="blur"/>
      <feFlood flood-opacity="0.161"/>
      <feComposite operator="in" in2="blur"/>
      <feComposite in="SourceGraphic"/>
    </filter>
  </defs>
  <g id="Group_5396" data-name="Group 5396" transform="translate(-3033.431 -514)">
    <g id="Group_5395" data-name="Group 5395" transform="translate(-27 111)">
      <g id="Group_5391" data-name="Group 5391" transform="translate(-1 -40)">
        <g id="Group_5389" data-name="Group 5389" transform="translate(64 165)">
          <g id="Ellipse_24" data-name="Ellipse 24" transform="translate(2999 278)" fill="#21aba5" stroke="#fff" stroke-width="2">
            <circle cx="14.5" cy="14.5" r="14.5" stroke="none"/>
            <circle cx="14.5" cy="14.5" r="13.5" fill="none"/>
          </g>
        </g>
      </g>
    </g>
    <g id="login-24px" transform="translate(3041.027 520)">
      <g id="Group_5393" data-name="Group 5393" transform="translate(-0.261)">
        <rect id="Rectangle_2121" data-name="Rectangle 2121" width="17" height="17" transform="translate(0.234)" fill="none"/>
      </g>
      <g id="Group_5394" data-name="Group 5394" transform="translate(1.404 2.123)">
        <g transform="matrix(1, 0, 0, 1, -9, -8.12)" filter="url(#Path_3833)">
          <path id="Path_3833-2" data-name="Path 3833" d="M9.784,5.831l.991.991-1.84,1.84h7.218v1.415H8.935l1.84,1.84-.991.991L7.523,10.646,6.246,9.369l2.79-2.79ZM3.415,14.323H9.077v1.415H3.415A1.42,1.42,0,0,1,2,14.323V4.415A1.42,1.42,0,0,1,3.415,3H9.077V4.415H3.415Z" transform="translate(7 5.12)" fill="#fff"/>
        </g>
      </g>
    </g>
  </g>
</svg>
