<svg xmlns="http://www.w3.org/2000/svg" xmlns:xlink="http://www.w3.org/1999/xlink" width="29" height="29" viewBox="0 0 31.318 32.412">
  <defs>
    <filter id="Path_3813" x="0" y="8.691" width="31.318" height="23.721" filterUnits="userSpaceOnUse">
      <feOffset dy="3" input="SourceAlpha"/>
      <feGaussianBlur stdDeviation="3" result="blur"/>
      <feFlood flood-opacity="0.161"/>
      <feComposite operator="in" in2="blur"/>
      <feComposite in="SourceGraphic"/>
    </filter>
    <filter id="Path_3814" x="2.954" y="0.25" width="25.409" height="26.253" filterUnits="userSpaceOnUse">
      <feOffset dy="3" input="SourceAlpha"/>
      <feGaussianBlur stdDeviation="3" result="blur-2"/>
      <feFlood flood-opacity="0.161"/>
      <feComposite operator="in" in2="blur-2"/>
      <feComposite in="SourceGraphic"/>
    </filter>
  </defs>
  <g id="Group_5382" data-name="Group 5382" transform="translate(-3003.752 -132)">
    <g id="Path_11803" data-name="Path 11803" transform="translate(3005 132)" fill="#21aba5">
      <path d="M 14.5 28 C 10.89402008056641 28 7.503870010375977 26.59576034545898 4.954060077667236 24.04594039916992 C 2.404239892959595 21.49612998962402 1 18.10597991943359 1 14.5 C 1 10.89402008056641 2.404239892959595 7.503870010375977 4.954060077667236 4.954060077667236 C 7.503870010375977 2.404239892959595 10.89402008056641 1 14.5 1 C 18.10597991943359 1 21.49612998962402 2.404239892959595 24.04594039916992 4.954060077667236 C 26.59576034545898 7.503870010375977 28 10.89402008056641 28 14.5 C 28 18.10597991943359 26.59576034545898 21.49612998962402 24.04594039916992 24.04594039916992 C 21.49612998962402 26.59576034545898 18.10597991943359 28 14.5 28 Z" stroke="none"/>
      <path d="M 14.5 2 C 11.16113090515137 2 8.022100448608398 3.300230026245117 5.661159515380859 5.661159515380859 C 3.300230026245117 8.022100448608398 2 11.16113090515137 2 14.5 C 2 17.83887100219727 3.300230026245117 20.9778995513916 5.661159515380859 23.33884048461914 C 8.022100448608398 25.69976997375488 11.16113090515137 27 14.5 27 C 17.83887100219727 27 20.9778995513916 25.69976997375488 23.33884048461914 23.33884048461914 C 25.69976997375488 20.9778995513916 27 17.83887100219727 27 14.5 C 27 11.16113090515137 25.69976997375488 8.022100448608398 23.33884048461914 5.661159515380859 C 20.9778995513916 3.300230026245117 17.83887100219727 2 14.5 2 M 14.5 0 C 22.50812911987305 0 29 6.491870880126953 29 14.5 C 29 22.50812911987305 22.50812911987305 29 14.5 29 C 6.491870880126953 29 0 22.50812911987305 0 14.5 C 0 6.491870880126953 6.491870880126953 0 14.5 0 Z" stroke="none" fill="#fff"/>
    </g>
    <g id="single-01" transform="translate(3011.502 138)">
      <g transform="matrix(1, 0, 0, 1, -7.75, -6)" filter="url(#Path_3813)">
        <path id="Path_3813-2" data-name="Path 3813" d="M13.818,23.358a1.683,1.683,0,0,0-1.11-1.587A14.156,14.156,0,0,0,7.909,21a14.156,14.156,0,0,0-4.8.771A1.683,1.683,0,0,0,2,23.358v1.863H13.818Z" transform="translate(7.75 -5.56)" fill="none" stroke="#fff" stroke-linecap="square" stroke-miterlimit="10" stroke-width="1.5"/>
      </g>
      <g transform="matrix(1, 0, 0, 1, -7.75, -6)" filter="url(#Path_3814)">
        <path id="Path_3814-2" data-name="Path 3814" d="M11.954,7.753h0A2.954,2.954,0,0,1,9,4.8V3.954A2.954,2.954,0,0,1,11.954,1h0a2.954,2.954,0,0,1,2.954,2.954V4.8A2.954,2.954,0,0,1,11.954,7.753Z" transform="translate(3.7 6)" fill="none" stroke="#fff" stroke-linecap="square" stroke-miterlimit="10" stroke-width="1.5"/>
      </g>
    </g>
  </g>
</svg>
